# xmcd CD database file
#
# Track frame offsets:
#	225
#	48288
#	87356
#	118722
#	145972
#	181917
#	232817
#	280703
#
# Disc length: 4084 seconds
#
# Revision: 1
# Processed by: cddbd v1.5.2PL0 Copyright (c) Steve Scherf et al.
# Submitted via: CDex 1.51
#
DISCID=650ff108
DTITLE=Zero - Nothin' Last Forever [live]
DYEAR=1998
DGENRE=Rock
TTITLE0=Cole's Law
TTITLE1=Papa Was A Rolling Stone
TTITLE2=This Is Your Brain On Drums Part 2
TTITLE3=Ermaline
TTITLE4=Forever Is Nowhere
TTITLE5=Home On The Range
TTITLE6=Little Wing
TTITLE7=I Want You (She's So Heavy)
EXTD=YEAR: 1998
EXTT0=
EXTT1=
EXTT2=
EXTT3=
EXTT4=
EXTT5=
EXTT6=
EXTT7=
PLAYORDER=
